<?xml version="1.0" encoding="UTF-8" standalone="no"?>
<!-- Created with Inkscape (http://www.inkscape.org/) -->

<svg
   xmlns:dc="http://purl.org/dc/elements/1.1/"
   xmlns:cc="http://creativecommons.org/ns#"
   xmlns:rdf="http://www.w3.org/1999/02/22-rdf-syntax-ns#"
   xmlns:svg="http://www.w3.org/2000/svg"
   xmlns="http://www.w3.org/2000/svg"
   xmlns:sodipodi="http://sodipodi.sourceforge.net/DTD/sodipodi-0.dtd"
   xmlns:inkscape="http://www.inkscape.org/namespaces/inkscape"
   version="1.1"
   width="298.66678"
   height="298.66678"
   id="svg2"
   inkscape:version="0.91 r13725"
   sodipodi:docname="YouTube-logo-seit-Dezember-2013.svg"
   inkscape:export-filename="/home/michael/code/hatchet/hatchet-hidetube/icon128.png"
   inkscape:export-xdpi="38.571415"
   inkscape:export-ydpi="38.571415">
  <sodipodi:namedview
     pagecolor="#ffffff"
     bordercolor="#666666"
     borderopacity="1"
     objecttolerance="10"
     gridtolerance="10"
     guidetolerance="10"
     inkscape:pageopacity="0"
     inkscape:pageshadow="2"
     inkscape:window-width="1600"
     inkscape:window-height="836"
     id="namedview4190"
     showgrid="false"
     fit-margin-top="0"
     fit-margin-left="0"
     fit-margin-right="0"
     fit-margin-bottom="0"
     inkscape:zoom="0.53584403"
     inkscape:cx="-60.446246"
     inkscape:cy="193.86741"
     inkscape:window-x="0"
     inkscape:window-y="207"
     inkscape:window-maximized="1"
     inkscape:current-layer="layer1" />
  <defs
     id="defs4">
    <linearGradient
       x1="382.34"
       y1="489.14001"
       gradientTransform="matrix(2.0779,0,0,2.0779,-518.08,-281.8)"
       x2="490.53"
       gradientUnits="userSpaceOnUse"
       y2="333.89001"
       id="linearGradient3019">
      <stop
         offset="0"
         style="stop-color:#000000;stop-opacity:.82639"
         id="stop3015" />
      <stop
         offset="1"
         style="stop-color:#000000"
         id="stop3017" />
    </linearGradient>
  </defs>
  <metadata
     id="metadata7">
    <rdf:RDF>
      <cc:Work
         rdf:about="">
        <dc:format>image/svg+xml</dc:format>
        <dc:type
           rdf:resource="http://purl.org/dc/dcmitype/StillImage" />
        <dc:title></dc:title>
      </cc:Work>
    </rdf:RDF>
  </metadata>
  <g
     transform="translate(-359.42628,-247.9917)"
     id="layer1">
    <g
       transform="translate(1.0101525,-124.45418)"
       id="g2996">
      <path
         d="m 441.34427,625.38581 c -48.85511,-1.63106 -62.08418,-5.10925 -71.07832,-18.68793 -3.63402,-5.48637 -7.71277,-17.76461 -9.01196,-27.12868 -4.55994,-32.86623 -3.44114,-101.39852 2.04097,-125.02057 4.96428,-21.39073 16.63716,-31.87024 37.93103,-34.05318 20.91838,-2.14445 75.44855,-3.3128 128.48831,-2.75295 57.26139,0.60441 84.22065,1.8294 93.97535,4.27011 19.07826,4.77356 28.33491,18.82762 31.56296,47.92101 0.61025,5.5 1.3598,24.70115 1.66567,42.66923 1.23475,72.53476 -4.22202,95.61013 -25.01916,105.79996 -7.85295,3.84765 -12.99151,4.73209 -35.18482,6.05594 -24.1078,1.43806 -122.48232,2.02504 -155.37003,0.92706 z"
         id="path3000"
         style="fill:#d02726"
         inkscape:connector-curvature="0"
         sodipodi:nodetypes="ssssssssssss" />
      <g
         id="layer1-2"
         transform="matrix(0.24912628,0,0,0.24912628,415.0625,390.69292)"
         style="fill:#ffffff;stroke:none">
        <path
           id="path4328"
           d="m 532.88652,321.55042 c -137.30274,-4.5657 -249.76466,46.07905 -249.76466,46.07905 l -0.082,257.01074 c -13.97986,-5.54932 -30.9803,-6.86492 -48.24714,-2.66811 -37.22637,9.04532 -61.60404,40.24694 -54.44812,69.70264 7.15591,29.45567 43.13227,46.00528 80.35453,36.96406 35.09927,-8.5289 58.76381,-36.75914 55.35797,-64.64102 l 0,-192.03365 c 0,0 79.52666,-27.80399 182.68097,-34.77549 l 0,142.82746 c -13.82822,-5.29521 -30.50489,-6.49606 -47.45615,-2.37709 -37.22637,9.0412 -61.60405,40.24282 -54.44813,69.7026 7.15183,29.45568 43.12817,46.0012 80.35455,36.95998 32.50494,-7.89774 55.21044,-32.69347 55.68586,-58.46053 l 0.0122,0.0163 0,-304.30703 z"
           inkscape:connector-curvature="0"
           style="fill:#ffffff;stroke:none;stroke-width:6.21773005;stroke-miterlimit:4;stroke-dasharray:none" />
      </g>
    </g>
  </g>
</svg>
